HIERARCHY
ROOT Hips
{
	OFFSET 0.00000 0.00000 0.00000
	CHANNELS 6 Xposition Yposition Zposition Yrotation Zrotation Xrotation 
	JOINT Lumbar
	{
		OFFSET 0 0 0
		CHANNELS 3 Zrotation Xrotation Yrotation
		JOINT Neck
		{
			OFFSET 0.00 0.2701 0.00
			CHANNELS 3 Zrotation Xrotation Yrotation
			End Site
			{
				OFFSET 0.00 0.1379 0.00
			}
		}
		JOINT RightShoulder
		{
			OFFSET 0.0119 0.2289 0.1181
			CHANNELS 3 Zrotation Xrotation Yrotation
			JOINT RightElbow
			{
				OFFSET 0.00 -0.1475 0.00
				CHANNELS 2 Zrotation Yrotation
				JOINT RightWrist
				{
					OFFSET 0.00 -0.1605 0.00
					CHANNELS 2 Zrotation Xrotation
					End Site
					{
						OFFSET 0.0040 -0.1068 0.0006
					}
				}
			}
		}
		JOINT LeftShoulder
		{
			OFFSET 0.0119 0.2289 -0.1181
			CHANNELS 3 Zrotation Xrotation Yrotation
			JOINT LeftElbow
			{
				OFFSET 0.00 -0.1475 0.00
				CHANNELS 2 Zrotation Yrotation
				JOINT LeftWrist
				{
					OFFSET 0.00 -0.1605 0.00
					CHANNELS 2 Zrotation Xrotation
					End Site
					{
						OFFSET 0.0040 -0.1068 -0.0006
					}
				}
			}
		}
	}
	JOINT RightHip
	{
		OFFSET 0.0316 -0.0424 0.0458
		CHANNELS 3 Zrotation Xrotation Yrotation
		JOINT RightKnee
		{
			OFFSET 0.00 -0.2438 0.00
			CHANNELS 1 Zrotation
			JOINT RightAnkle
			{
				OFFSET 0.00 -0.2449 0.00
				CHANNELS 3 Zrotation Xrotation Yrotation
				End Site
				{
					OFFSET 0.1237 -0.0542 0.0051
				}
			}
		}
	}
	JOINT LeftHip
	{
		OFFSET 0.0316 -0.0424 -0.0458
		CHANNELS 3 Zrotation Xrotation Yrotation
		JOINT LeftKnee
		{
			OFFSET 0.00 -0.2438 0.00
			CHANNELS 1 Zrotation
			JOINT LeftAnkle
			{
				OFFSET 0.00 -0.2449 0.00
				CHANNELS 3 Zrotation Xrotation Yrotation
				End Site
				{
					OFFSET 0.1237 -0.0542 -0.0051
				}
			}
		}
	}
}
MOTION
Frames: 13
Frame Time: 0.02
-0.29229 -0.02925 -0.67679 566.28952 -39.51439 -4.48092 35.57875 0.25505 -3.70551 -16.49122 19.49533 -0.83076 -10.0804 -29.28572 38.08362 75.40473 89.35311 3.76764 0.62419 -21.24909 26.77649 -10.95686 47.35144 -77.21286 -4.65867 -1.76013 47.98902 7.36969 -14.0411 -28.61522 -8.01692 -1.48624 -1.42112 30.34258 19.15061 -12.39098 -28.81469 -7.03129 1.20024 1.2238
-0.297 -0.02955 -0.67838 567.76422 -39.63977 -4.11136 35.62101 0.25885 -3.50914 -16.49596 19.27653 -0.83076 -10.36644 -29.97182 37.24903 79.58324 88.80497 3.44342 0.5491 -21.8782 27.05831 -10.5881 47.20184 -78.39477 -3.95549 -1.75041 47.32115 7.55184 -14.97389 -27.80033 -7.9734 -1.51066 -1.43618 32.25597 19.57374 -12.79274 -31.07213 -7.44141 0.95904 1.10642
-0.30125 -0.02974 -0.67995 569.31035 -39.79503 -3.71505 35.6903 0.25611 -3.43356 -16.54848 19.01139 -0.83076 -10.26691 -30.60737 36.46899 84.38608 88.38065 3.21925 0.47047 -22.49689 27.32409 -10.37247 47.30702 -80.4422 -2.79983 -1.76325 46.67931 7.71494 -15.95711 -26.84326 -7.93931 -1.52997 -1.44919 34.60676 20.03131 -12.78022 -33.69468 -7.93465 0.65933 0.95678
-0.30567 -0.02997 -0.68151 570.81955 -39.9329 -3.32982 35.74198 0.25326 -3.28499 -16.57828 18.78331 -0.83076 -10.29889 -31.25639 35.6564 88.88726 87.92698 2.97757 0.39243 -23.10586 27.56328 -10.04231 47.30786 -82.38367 -1.75273 -1.81054 46.02675 7.88765 -16.89497 -25.95423 -7.90099 -1.55346 -1.46401 36.73043 20.44712 -12.97491 -36.1115 -8.3767 0.40155 0.83
-0.31022 -0.03022 -0.68315 572.34701 -40.0895 -2.95003 35.81457 0.26551 -3.203 -16.60762 18.4915 -0.83076 -10.52976 -31.94626 34.86178 93.50214 87.34845 2.60859 0.31829 -23.77559 27.94323 -9.89453 47.27278 -83.18942 -1.09002 -1.68154 45.36619 8.05437 -17.94327 -25.04856 -7.86081 -1.56864 -1.47479 38.98778 20.96991 -13.10732 -38.71727 -8.87564 0.07964 0.6692
-0.31441 -0.03041 -0.68463 573.85634 -40.21259 -2.5516 35.85035 0.24388 -3.01703 -16.65036 18.31871 -0.83076 -10.24631 -32.53834 34.04848 98.00844 87.05916 2.53079 0.23472 -24.31535 28.03102 -9.41667 47.36789 -86.46257 0.44577 -1.90934 44.73082 8.22895 -18.7667 -24.14668 -7.82727 -1.60068 -1.49395 41.0626 21.2807 -13.26215 -40.99866 -9.27628 -0.12319 0.5712
-0.31772 -0.03046 -0.68574 575.26482 -40.24305 -2.11588 35.78165 0.1311 -2.4866 -16.72728 18.5014 -0.83076 -8.67487 -32.87734 33.16906 102.12797 87.59496 3.24786 0.13367 -24.51135 27.2664 -7.8578 47.76489 -97.26344 4.59757 -3.25413 44.14626 8.44002 -18.9667 -23.26512 -7.81111 -1.67331 -1.53278 42.55801 20.98024 -13.60522 -42.41043 -9.37823 0.02129 0.65655
-0.32067 -0.03046 -0.6867 576.65852 -40.23725 -1.66101 35.67477 -0.0159 -1.85348 -16.81525 18.80221 -0.83076 -6.59169 -33.11838 32.27133 106.09909 88.40966 4.25255 0.02205 -24.57459 26.21687 -5.98481 48.28144 -110.35393 9.55636 -4.93283 43.58924 8.65805 -18.93505 -22.39727 -7.80137 -1.76436 -1.5808 43.84704 20.46883 -13.97758 -43.45926 -9.37965 0.28655 0.80564
-0.32376 -0.03048 -0.68771 578.08038 -40.2429 -1.20967 35.5829 -0.14821 -1.28679 -16.89299 19.03848 -0.83076 -4.71494 -33.40174 31.3848 110.09137 89.06143 5.11783 -0.08975 -24.6908 25.33047 -4.34233 48.7386 -121.7794 13.93606 -6.36711 43.02749 8.86686 -19.0005 -21.53898 -7.78796 -1.85179 -1.62724 45.20838 20.06547 -14.31888 -44.59821 -9.4313 0.49409 0.92435
-0.32694 -0.03048 -0.68881 579.41395 -40.2704 -0.77859 35.50092 -0.27752 -0.64121 -16.9939 19.31913 -0.83076 -2.93048 -33.69425 30.4875 114.30449 89.8686 6.02568 -0.18105 -24.83848 24.30308 -2.33731 49.2267 -135.83758 19.21814 -8.1884 42.43189 9.10109 -19.10115 -20.60754 -7.77772 -1.91926 -1.6628 46.67634 19.61135 -14.72392 -46.06958 -9.46616 0.71265 1.04854
-0.32984 -0.03053 -0.68968 580.92734 -40.24398 -0.30193 35.39005 -0.42058 -0.1334 -17.04906 19.53584 -0.83076 -0.84325 -33.94304 29.60794 118.01031 90.41847 6.90873 -0.31704 -24.88826 23.49988 -1.00764 49.67478 -144.98717 22.81877 -9.2889 41.91533 9.28356 -19.07444 -19.83547 -7.76269 -2.03241 -1.72307 47.86691 19.21306 -15.00474 -46.75309 -9.51167 0.93632 1.17608
-0.33214 -0.03072 -0.68999 582.93671 -40.07202 0.30238 35.19884 -0.59787 -0.03604 -16.97106 19.54884 -0.83076 2.00434 -34.11291 28.78068 120.37846 90.17554 7.67982 -0.57709 -24.70932 23.40185 -1.64334 49.98654 -139.65898 21.47368 -8.26454 41.59048 9.32755 -18.73723 -19.48517 -7.72933 -2.27003 -1.85057 48.34207 19.01489 -14.95876 -45.38304 -9.60594 1.15109 1.30084
-0.33416 -0.03096 -0.69007 585.1274 -39.84786 0.95031 34.98153 -0.78686 -0.07914 -16.84723 19.49343 -0.83076 5.12718 -34.23904 27.97259 122.23217 89.66635 8.41039 -0.88072 -24.43542 23.53559 -2.96222 50.2519 -129.3815 18.42846 -6.51426 41.34777 9.31811 -18.28242 -19.29855 -7.69153 -2.55242 -2.00236 48.54178 18.88115 -14.77748 -43.22327 -9.71548 1.36205 1.42407
